<?xml version="1.0" encoding="UTF-8"?>
<mxfile host="app.diagrams.net" agent="Mozilla/5.0 (Macintosh; Intel Mac OS X 10_15_7) AppleWebKit/537.36 (KHTML, like Gecko) Chrome/139.0.0.0 Safari/537.36" version="28.2.0">
  <diagram name="Page-1" id="cJqtYtMhqax4qXVWDG97">
    <mxGraphModel dx="1216" dy="699" grid="1" gridSize="10" guides="1" tooltips="1" connect="1" arrows="1" fold="1" page="1" pageScale="1" pageWidth="850" pageHeight="1100" math="0" shadow="0">
      <root>
        <mxCell id="0" />
        <mxCell id="1" parent="0" />
        <mxCell id="I_zg0SXqodtut6Klak_m-23" value="Sub process" style="swimlane;" vertex="1" parent="1">
          <mxGeometry x="40" y="440" width="520" height="200" as="geometry" />
        </mxCell>
        <mxCell id="I_zg0SXqodtut6Klak_m-17" value="Event" style="shape=note;whiteSpace=wrap;html=1;backgroundOutline=1;darkOpacity=0.05;fillColor=#feae57;strokeColor=none;fontSize=16;fontStyle=0;rotation=0;shadow=1;" vertex="1" parent="I_zg0SXqodtut6Klak_m-23">
          <mxGeometry x="40" y="50" width="120" height="120" as="geometry" />
        </mxCell>
        <mxCell id="I_zg0SXqodtut6Klak_m-19" value="Policy" style="shape=note;whiteSpace=wrap;html=1;backgroundOutline=1;darkOpacity=0.05;fillColor=#da99e6;strokeColor=none;fontSize=16;fontStyle=0;rotation=0;shadow=1;" vertex="1" parent="I_zg0SXqodtut6Klak_m-23">
          <mxGeometry x="200" y="50" width="120" height="120" as="geometry" />
        </mxCell>
        <mxCell id="I_zg0SXqodtut6Klak_m-22" style="edgeStyle=orthogonalEdgeStyle;rounded=0;orthogonalLoop=1;jettySize=auto;html=1;entryX=0;entryY=0.5;entryDx=0;entryDy=0;entryPerimeter=0;" edge="1" parent="I_zg0SXqodtut6Klak_m-23" source="I_zg0SXqodtut6Klak_m-17" target="I_zg0SXqodtut6Klak_m-19">
          <mxGeometry relative="1" as="geometry" />
        </mxCell>
        <mxCell id="I_zg0SXqodtut6Klak_m-26" value="Externam System" style="shape=note;whiteSpace=wrap;html=1;backgroundOutline=1;darkOpacity=0.05;fillColor=#FFB3C5;strokeColor=none;fontSize=16;fontStyle=0;rotation=0;shadow=1;" vertex="1" parent="I_zg0SXqodtut6Klak_m-23">
          <mxGeometry x="360" y="50" width="120" height="120" as="geometry" />
        </mxCell>
        <mxCell id="I_zg0SXqodtut6Klak_m-28" style="edgeStyle=orthogonalEdgeStyle;rounded=0;orthogonalLoop=1;jettySize=auto;html=1;entryX=0;entryY=0.5;entryDx=0;entryDy=0;entryPerimeter=0;" edge="1" parent="I_zg0SXqodtut6Klak_m-23" source="I_zg0SXqodtut6Klak_m-19" target="I_zg0SXqodtut6Klak_m-26">
          <mxGeometry relative="1" as="geometry" />
        </mxCell>
        <mxCell id="I_zg0SXqodtut6Klak_m-29" value="Main process" style="swimlane;" vertex="1" parent="1">
          <mxGeometry x="40" y="40" width="840" height="360" as="geometry" />
        </mxCell>
        <mxCell id="I_zg0SXqodtut6Klak_m-2" value="Event" style="shape=note;whiteSpace=wrap;html=1;backgroundOutline=1;darkOpacity=0.05;fillColor=#feae57;strokeColor=none;fontSize=16;fontStyle=0;rotation=0;shadow=1;" vertex="1" parent="I_zg0SXqodtut6Klak_m-29">
          <mxGeometry x="200" y="120" width="120" height="120" as="geometry" />
        </mxCell>
        <mxCell id="I_zg0SXqodtut6Klak_m-3" value="Command" style="shape=note;whiteSpace=wrap;html=1;backgroundOutline=1;darkOpacity=0.05;fillColor=#a7c5fc;strokeColor=none;fontSize=16;fontStyle=0;rotation=0;shadow=1;" vertex="1" parent="I_zg0SXqodtut6Klak_m-29">
          <mxGeometry x="40" y="120" width="120" height="120" as="geometry" />
        </mxCell>
        <mxCell id="I_zg0SXqodtut6Klak_m-4" value="Policy" style="shape=note;whiteSpace=wrap;html=1;backgroundOutline=1;darkOpacity=0.05;fillColor=#da99e6;strokeColor=none;fontSize=16;fontStyle=0;rotation=0;shadow=1;" vertex="1" parent="I_zg0SXqodtut6Klak_m-29">
          <mxGeometry x="360" y="120" width="120" height="120" as="geometry" />
        </mxCell>
        <mxCell id="I_zg0SXqodtut6Klak_m-5" value="Externam System" style="shape=note;whiteSpace=wrap;html=1;backgroundOutline=1;darkOpacity=0.05;fillColor=#FFB3C5;strokeColor=none;fontSize=16;fontStyle=0;rotation=0;shadow=1;" vertex="1" parent="I_zg0SXqodtut6Klak_m-29">
          <mxGeometry x="520" y="40" width="120" height="120" as="geometry" />
        </mxCell>
        <mxCell id="I_zg0SXqodtut6Klak_m-7" value="Read/View Model" style="shape=note;whiteSpace=wrap;html=1;backgroundOutline=1;darkOpacity=0.05;fillColor=#b0deb3;strokeColor=none;fontSize=16;fontStyle=0;rotation=0;shadow=1;" vertex="1" parent="I_zg0SXqodtut6Klak_m-29">
          <mxGeometry x="680" y="120" width="120" height="120" as="geometry" />
        </mxCell>
        <mxCell id="I_zg0SXqodtut6Klak_m-8" value="" style="sketch=0;outlineConnect=0;fontColor=#232F3E;gradientColor=none;fillColor=#232F3D;strokeColor=none;dashed=0;verticalLabelPosition=bottom;verticalAlign=top;align=center;html=1;fontSize=12;fontStyle=0;aspect=fixed;pointerEvents=1;shape=mxgraph.aws4.user;" vertex="1" parent="I_zg0SXqodtut6Klak_m-29">
          <mxGeometry x="20" y="230" width="40" height="40" as="geometry" />
        </mxCell>
        <mxCell id="I_zg0SXqodtut6Klak_m-9" value="Sub process" style="shape=note;whiteSpace=wrap;html=1;backgroundOutline=1;darkOpacity=0.05;fillColor=#fef5b2;strokeColor=none;fontSize=16;fontStyle=0;rotation=0;shadow=1;" vertex="1" parent="I_zg0SXqodtut6Klak_m-29">
          <mxGeometry x="520" y="200" width="120" height="120" as="geometry" />
        </mxCell>
        <mxCell id="I_zg0SXqodtut6Klak_m-10" style="edgeStyle=orthogonalEdgeStyle;rounded=0;orthogonalLoop=1;jettySize=auto;html=1;entryX=0;entryY=0.5;entryDx=0;entryDy=0;entryPerimeter=0;" edge="1" parent="I_zg0SXqodtut6Klak_m-29" source="I_zg0SXqodtut6Klak_m-3" target="I_zg0SXqodtut6Klak_m-2">
          <mxGeometry relative="1" as="geometry" />
        </mxCell>
        <mxCell id="I_zg0SXqodtut6Klak_m-11" style="edgeStyle=orthogonalEdgeStyle;rounded=0;orthogonalLoop=1;jettySize=auto;html=1;entryX=0;entryY=0.5;entryDx=0;entryDy=0;entryPerimeter=0;" edge="1" parent="I_zg0SXqodtut6Klak_m-29" source="I_zg0SXqodtut6Klak_m-2" target="I_zg0SXqodtut6Klak_m-4">
          <mxGeometry relative="1" as="geometry" />
        </mxCell>
        <mxCell id="I_zg0SXqodtut6Klak_m-12" style="edgeStyle=orthogonalEdgeStyle;rounded=0;orthogonalLoop=1;jettySize=auto;html=1;entryX=0;entryY=0.5;entryDx=0;entryDy=0;entryPerimeter=0;" edge="1" parent="I_zg0SXqodtut6Klak_m-29" source="I_zg0SXqodtut6Klak_m-4" target="I_zg0SXqodtut6Klak_m-5">
          <mxGeometry relative="1" as="geometry" />
        </mxCell>
        <mxCell id="I_zg0SXqodtut6Klak_m-13" style="edgeStyle=orthogonalEdgeStyle;rounded=0;orthogonalLoop=1;jettySize=auto;html=1;entryX=0;entryY=0.5;entryDx=0;entryDy=0;entryPerimeter=0;" edge="1" parent="I_zg0SXqodtut6Klak_m-29" source="I_zg0SXqodtut6Klak_m-4" target="I_zg0SXqodtut6Klak_m-9">
          <mxGeometry relative="1" as="geometry" />
        </mxCell>
        <mxCell id="I_zg0SXqodtut6Klak_m-14" style="edgeStyle=orthogonalEdgeStyle;rounded=0;orthogonalLoop=1;jettySize=auto;html=1;entryX=0;entryY=0.5;entryDx=0;entryDy=0;entryPerimeter=0;" edge="1" parent="I_zg0SXqodtut6Klak_m-29" source="I_zg0SXqodtut6Klak_m-9" target="I_zg0SXqodtut6Klak_m-7">
          <mxGeometry relative="1" as="geometry" />
        </mxCell>
        <mxCell id="I_zg0SXqodtut6Klak_m-15" style="edgeStyle=orthogonalEdgeStyle;rounded=0;orthogonalLoop=1;jettySize=auto;html=1;entryX=0;entryY=0.5;entryDx=0;entryDy=0;entryPerimeter=0;" edge="1" parent="I_zg0SXqodtut6Klak_m-29" source="I_zg0SXqodtut6Klak_m-5" target="I_zg0SXqodtut6Klak_m-7">
          <mxGeometry relative="1" as="geometry" />
        </mxCell>
      </root>
    </mxGraphModel>
  </diagram>
</mxfile>
